<?xml version="1.0" encoding="utf-8"?>
<svg width="473" height="473" viewBox="0 0 473 473" fill="none" version="1.2" baseProfile="tiny-ps" xmlns="http://www.w3.org/2000/svg">
  <title>1</title>
  <rect width="473" height="473" fill="white" />
  <path d="M427 366.51L230 464V8L427 108.634V366.51Z" fill="#F69522" />
  <path d="M72.8275 182.5V322H46V145H83.6486L135.275 284.25L187.351 145H225V322H198.173V182.25L145.87 322H125.13L72.8275 182.5Z" fill="#6C6B6B" />
  <path d="M386.301 328.848C367.801 328.848 353.051 323.681 342.051 313.348C331.217 303.014 325.634 287.931 325.301 268.098L344.551 265.848C345.884 279.181 349.801 289.431 356.301 296.598C362.967 303.598 372.634 307.098 385.301 307.098C395.134 307.098 403.217 304.514 409.551 299.348C415.884 294.014 419.051 286.348 419.051 276.348C419.051 271.848 418.301 268.014 416.801 264.848C415.467 261.514 413.551 258.681 411.051 256.348C408.717 254.014 405.884 252.098 402.551 250.598C399.384 248.931 395.967 247.431 392.301 246.098C389.634 245.098 386.967 244.181 384.301 243.348C381.634 242.514 378.884 241.681 376.051 240.848C370.551 239.181 365.051 237.264 359.551 235.098C354.051 232.764 349.051 229.764 344.551 226.098C340.217 222.264 336.717 217.514 334.051 211.848C331.384 206.181 330.051 199.098 330.051 190.598C330.051 183.098 331.217 176.264 333.551 170.098C336.051 163.764 339.551 158.348 344.051 153.848C348.551 149.348 353.884 145.931 360.051 143.598C366.217 141.098 373.051 139.848 380.551 139.848C396.551 139.848 409.384 144.514 419.051 153.848C428.884 163.181 434.051 176.431 434.551 193.598L414.301 195.848C413.301 184.348 410.217 175.764 405.051 170.098C399.884 164.431 391.967 161.598 381.301 161.598C372.467 161.598 365.134 163.764 359.301 168.098C353.467 172.264 350.551 179.014 350.551 188.348C350.551 192.681 351.301 196.348 352.801 199.348C354.467 202.181 356.551 204.681 359.051 206.848C361.551 208.848 364.384 210.514 367.551 211.848C370.884 213.181 374.217 214.431 377.551 215.598C380.051 216.431 382.634 217.264 385.301 218.098C388.134 218.931 390.967 219.764 393.801 220.598C399.467 222.431 405.051 224.598 410.551 227.098C416.051 229.431 420.967 232.598 425.301 236.598C429.634 240.598 433.134 245.598 435.801 251.598C438.467 257.598 439.801 265.098 439.801 274.098C439.801 281.931 438.467 289.181 435.801 295.848C433.301 302.514 429.634 308.264 424.801 313.098C420.134 317.931 414.551 321.764 408.051 324.598C401.551 327.431 394.301 328.848 386.301 328.848Z" fill="white" />
  <path d="M110.266 377.975V380.55H113.966L113.641 381.1H110.266V394H106.566V381.1H104.941V380.55H106.566V378.45C106.566 376.95 106.991 375.775 107.841 374.925C108.708 374.075 109.85 373.65 111.266 373.65C112.816 373.65 114.3 374.133 115.716 375.1L115.516 375.4C114.666 374.983 113.85 374.775 113.066 374.775C112.183 374.775 111.491 375.05 110.991 375.6C110.508 376.15 110.266 376.942 110.266 377.975ZM127.569 393.35L124.044 394.275L123.319 392.075C122.019 393.558 120.527 394.3 118.844 394.3C115.894 394.3 114.419 392.708 114.419 389.525V381.05L118.019 380.175H118.119V389.85C118.119 390.733 118.252 391.5 118.519 392.15C118.785 392.817 119.427 393.15 120.444 393.15C121.377 393.15 122.335 392.608 123.319 391.525V381.05L126.919 380.175H127.019V391.625L127.569 393.35ZM137.904 380.4L136.929 383.125C136.513 382.908 136.071 382.8 135.604 382.8C134.988 382.8 134.438 383.008 133.954 383.425C133.471 383.825 133.129 384.375 132.929 385.075V394H129.254V381.05L132.729 380.175H132.829V384.3C133.163 383.05 133.679 382.067 134.379 381.35C135.096 380.617 135.904 380.25 136.804 380.25C137.188 380.25 137.554 380.3 137.904 380.4ZM151.34 385.025V394H147.665V384.675C147.665 383.858 147.523 383.1 147.24 382.4C146.973 381.733 146.331 381.4 145.315 381.4C144.331 381.4 143.365 381.875 142.415 382.825V394H138.74V381.05L142.315 380.175H142.415V382.35C143.731 380.95 145.24 380.25 146.94 380.25C149.873 380.25 151.34 381.842 151.34 385.025ZM155.373 378.625L153.048 376.3L155.373 373.975L157.673 376.3L155.373 378.625ZM153.523 394V381.05L157.098 380.175H157.198V394H153.523ZM158.644 393.275L159.144 391.475C159.694 392.208 160.402 392.808 161.269 393.275C162.152 393.725 163.077 393.95 164.044 393.95C164.944 393.95 165.652 393.75 166.169 393.35C166.702 392.95 166.969 392.417 166.969 391.75C166.969 391.133 166.735 390.633 166.269 390.25C165.802 389.867 165.019 389.467 163.919 389.05L162.869 388.65C162.169 388.383 161.527 388.092 160.944 387.775C159.544 386.975 158.844 385.858 158.844 384.425C158.844 383.225 159.31 382.233 160.244 381.45C161.194 380.65 162.477 380.25 164.094 380.25C165.744 380.25 167.219 380.567 168.519 381.2L168.094 382.775C166.86 381.325 165.402 380.6 163.719 380.6C162.919 380.6 162.277 380.792 161.794 381.175C161.327 381.542 161.094 382.025 161.094 382.625C161.127 382.992 161.202 383.3 161.319 383.55C161.452 383.783 161.677 384.008 161.994 384.225C162.31 384.442 162.594 384.608 162.844 384.725C163.11 384.842 163.552 385.025 164.169 385.275L165.194 385.65C165.977 385.967 166.619 386.267 167.119 386.55C168.519 387.333 169.219 388.475 169.219 389.975C169.219 391.208 168.727 392.242 167.744 393.075C166.76 393.892 165.402 394.3 163.669 394.3C162.702 394.3 161.735 394.192 160.769 393.975C159.752 393.742 159.044 393.508 158.644 393.275ZM183.166 385.025V394H179.466V384.675C179.466 383.858 179.324 383.1 179.041 382.4C178.774 381.733 178.141 381.4 177.141 381.4C176.158 381.4 175.191 381.875 174.241 382.825V394H170.541V374.8L174.141 373.75H174.241V382.325C175.591 380.942 177.091 380.25 178.741 380.25C181.691 380.25 183.166 381.842 183.166 385.025ZM187.174 378.625L184.849 376.3L187.174 373.975L189.474 376.3L187.174 378.625ZM185.324 394V381.05L188.899 380.175H188.999V394H185.324ZM203.845 385.025V394H200.17V384.675C200.17 383.858 200.028 383.1 199.745 382.4C199.478 381.733 198.836 381.4 197.82 381.4C196.836 381.4 195.87 381.875 194.92 382.825V394H191.245V381.05L194.82 380.175H194.92V382.35C196.236 380.95 197.745 380.25 199.445 380.25C202.378 380.25 203.845 381.842 203.845 385.025ZM217.003 381.475C216.52 381.475 216.145 381.558 215.878 381.725C216.828 382.575 217.303 383.642 217.303 384.925C217.303 386.292 216.728 387.417 215.578 388.3C214.445 389.183 213.028 389.625 211.328 389.625C210.312 389.625 209.412 389.475 208.628 389.175L208.203 389.45C207.82 389.7 207.628 390.017 207.628 390.4C207.628 390.633 207.753 390.833 208.003 391C208.27 391.167 208.662 391.258 209.178 391.275L213.853 391.55C216.987 391.7 218.553 392.833 218.553 394.95C218.553 396.45 217.787 397.667 216.253 398.6C214.737 399.533 212.895 400 210.728 400C209.028 400 207.587 399.7 206.403 399.1C205.22 398.5 204.628 397.658 204.628 396.575C204.628 396.125 204.737 395.683 204.953 395.25L206.953 394.675H207.053C206.837 395.258 206.728 395.833 206.728 396.4C206.728 397.4 207.078 398.183 207.778 398.75C208.495 399.317 209.478 399.6 210.728 399.6C212.428 399.6 213.803 399.308 214.853 398.725C215.92 398.158 216.453 397.408 216.453 396.475C216.453 395.842 216.178 395.358 215.628 395.025C215.095 394.708 214.212 394.517 212.978 394.45L208.678 394.2C207.712 394.133 206.978 393.9 206.478 393.5C205.978 393.083 205.728 392.542 205.728 391.875C205.728 391.342 205.887 390.883 206.203 390.5C206.537 390.1 207.078 389.675 207.828 389.225L208.203 389C206.387 388.167 205.478 386.825 205.478 384.975C205.478 383.592 206.045 382.458 207.178 381.575C208.328 380.692 209.762 380.25 211.478 380.25C213.095 380.25 214.445 380.642 215.528 381.425C216.312 380.042 217.462 379.35 218.978 379.35L218.678 381.9C218.028 381.617 217.47 381.475 217.003 381.475ZM213.953 385C213.953 383.65 213.72 382.583 213.253 381.8C212.803 381.017 212.178 380.625 211.378 380.625C209.695 380.625 208.853 382.058 208.853 384.925C208.853 386.275 209.07 387.333 209.503 388.1C209.953 388.867 210.595 389.25 211.428 389.25C213.112 389.25 213.953 387.833 213.953 385ZM238.536 388.95L240.461 390.525V394.825H240.311L236.711 391.875C235.145 393.492 233.036 394.3 230.386 394.3C228.553 394.3 227.003 393.867 225.736 393C224.486 392.117 223.861 390.917 223.861 389.4C223.861 388.267 224.228 387.3 224.961 386.5C225.711 385.7 226.736 385.083 228.036 384.65C226.503 383.2 225.736 381.725 225.736 380.225C225.736 378.858 226.236 377.733 227.236 376.85C228.236 375.95 229.445 375.5 230.861 375.5C232.178 375.5 233.336 375.875 234.336 376.625C235.353 377.375 235.861 378.3 235.861 379.4C235.861 380.383 235.495 381.175 234.761 381.775C233.995 382.375 233.17 382.808 232.286 383.075L232.011 382.825C233.061 382.092 233.586 380.992 233.586 379.525C233.586 378.392 233.328 377.5 232.811 376.85C232.295 376.183 231.603 375.85 230.736 375.85C229.953 375.85 229.32 376.117 228.836 376.65C228.37 377.167 228.136 377.808 228.136 378.575C228.136 379.125 228.278 379.667 228.561 380.2C228.745 380.517 228.97 380.825 229.236 381.125C229.52 381.425 229.77 381.675 229.986 381.875C230.22 382.075 230.595 382.392 231.111 382.825L238.211 388.675C238.478 387.875 238.611 387 238.611 386.05C238.611 384.85 238.303 383.725 237.686 382.675L239.011 382.225H239.111V385.575C239.111 386.758 238.92 387.883 238.536 388.95ZM236.361 391.575L230.061 386.4C229.561 386.017 228.986 385.525 228.336 384.925C227.52 385.642 227.111 386.758 227.111 388.275C227.111 389.825 227.553 391.058 228.436 391.975C229.32 392.875 230.445 393.325 231.811 393.325C233.578 393.325 235.095 392.742 236.361 391.575ZM259.888 393.35L256.388 394.275L255.713 392.175C254.447 393.592 253.005 394.3 251.388 394.3C249.755 394.3 248.388 393.667 247.288 392.4C246.188 391.117 245.638 389.5 245.638 387.55C245.638 385.467 246.288 383.733 247.588 382.35C248.888 380.95 250.472 380.25 252.338 380.25C253.622 380.25 254.73 380.617 255.663 381.35V374.8L259.238 373.75H259.338V391.625L259.888 393.35ZM255.663 391.575V383.225C255.43 382.425 255.055 381.8 254.538 381.35C254.038 380.883 253.463 380.65 252.813 380.65C251.763 380.65 250.955 381.233 250.388 382.4C249.822 383.55 249.538 385.175 249.538 387.275C249.538 391.225 250.588 393.2 252.688 393.2C253.738 393.2 254.73 392.658 255.663 391.575ZM273.835 386.4H264.735V386.5C264.735 388.55 265.135 390.117 265.935 391.2C266.735 392.283 267.827 392.825 269.21 392.825C270.91 392.825 272.343 392.092 273.51 390.625L273.81 390.8C272.227 393.133 270.127 394.3 267.51 394.3C265.577 394.3 263.993 393.683 262.76 392.45C261.527 391.217 260.91 389.583 260.91 387.55C260.91 385.367 261.577 383.608 262.91 382.275C264.26 380.925 265.993 380.25 268.11 380.25C270.06 380.25 271.518 380.825 272.485 381.975C273.468 383.125 273.918 384.6 273.835 386.4ZM264.735 386H270.56C270.593 385.367 270.61 385.025 270.61 384.975C270.61 383.675 270.36 382.625 269.86 381.825C269.36 381.025 268.71 380.625 267.91 380.625C266.993 380.625 266.252 381.133 265.685 382.15C265.135 383.117 264.818 384.4 264.735 386ZM274.668 387.475C274.634 385.358 275.309 383.617 276.693 382.25C278.076 380.883 279.743 380.217 281.693 380.25C283.826 380.25 285.543 380.983 286.843 382.45L285.568 383.575C284.951 382.542 284.376 381.792 283.843 381.325C283.309 380.858 282.701 380.625 282.018 380.625C280.968 380.625 280.134 381.158 279.518 382.225C278.918 383.275 278.618 384.725 278.618 386.575C278.618 388.592 278.976 390.142 279.693 391.225C280.426 392.292 281.434 392.825 282.718 392.825C284.268 392.825 285.593 392.075 286.693 390.575L286.993 390.75C285.443 393.117 283.476 394.3 281.093 394.3C279.259 394.3 277.726 393.675 276.493 392.425C275.276 391.158 274.668 389.508 274.668 387.475ZM287.278 387.35C287.278 385.25 287.961 383.542 289.328 382.225C290.711 380.908 292.453 380.25 294.553 380.25C296.62 380.25 298.311 380.892 299.628 382.175C300.961 383.442 301.628 385.117 301.628 387.2C301.628 389.283 300.936 390.992 299.553 392.325C298.17 393.642 296.436 394.3 294.353 394.3C292.286 394.3 290.586 393.667 289.253 392.4C287.936 391.117 287.278 389.433 287.278 387.35ZM297.728 387.375C297.728 385.292 297.428 383.642 296.828 382.425C296.245 381.208 295.436 380.6 294.403 380.6C293.353 380.6 292.553 381.183 292.003 382.35C291.453 383.5 291.178 385.125 291.178 387.225C291.178 389.292 291.47 390.933 292.053 392.15C292.636 393.35 293.445 393.95 294.478 393.95C295.528 393.95 296.328 393.375 296.878 392.225C297.445 391.058 297.728 389.442 297.728 387.375ZM311.825 380.4L310.85 383.125C310.434 382.908 309.992 382.8 309.525 382.8C308.909 382.8 308.359 383.008 307.875 383.425C307.392 383.825 307.05 384.375 306.85 385.075V394H303.175V381.05L306.65 380.175H306.75V384.3C307.084 383.05 307.6 382.067 308.3 381.35C309.017 380.617 309.825 380.25 310.725 380.25C311.109 380.25 311.475 380.3 311.825 380.4ZM324.129 393.275V393.425C323.296 393.975 322.363 394.25 321.329 394.25C319.846 394.25 318.988 393.617 318.754 392.35C317.521 393.617 316.079 394.25 314.429 394.25C313.379 394.25 312.529 393.958 311.879 393.375C311.229 392.775 310.904 392 310.904 391.05C310.904 389.917 311.388 388.983 312.354 388.25C313.338 387.5 314.688 387.033 316.404 386.85C317.304 386.783 318.079 386.717 318.729 386.65V385.275C318.729 384.008 318.529 383.025 318.129 382.325C317.763 381.608 316.963 381.25 315.729 381.25C314.446 381.25 313.213 381.717 312.029 382.65L311.804 382.375C312.604 381.642 313.404 381.108 314.204 380.775C315.021 380.425 315.996 380.25 317.129 380.25C320.663 380.25 322.429 381.842 322.429 385.025V391.425C322.429 392.192 322.496 392.7 322.629 392.95C322.763 393.2 323.096 393.325 323.629 393.325C323.696 393.325 323.863 393.308 324.129 393.275ZM318.729 391.875V387.025C315.896 387.358 314.479 388.542 314.479 390.575C314.479 391.358 314.654 391.967 315.004 392.4C315.371 392.833 315.846 393.05 316.429 393.05C317.229 393.05 317.996 392.658 318.729 391.875ZM332.738 392.55L332.938 392.85C331.555 393.817 330.205 394.3 328.888 394.3C327.438 394.3 326.48 393.942 326.013 393.225C325.53 392.492 325.288 391.667 325.288 390.75V381.1H323.638V380.675L325.238 380.55L328.863 375.925H328.963V380.55H332.888L332.563 381.1H328.963V390.875C328.963 391.458 329.063 391.992 329.263 392.475C329.48 392.942 329.963 393.175 330.713 393.175C331.347 393.175 332.022 392.967 332.738 392.55ZM335.362 378.625L333.037 376.3L335.362 373.975L337.662 376.3L335.362 378.625ZM333.512 394V381.05L337.087 380.175H337.187V394H333.512ZM338.782 387.35C338.782 385.25 339.465 383.542 340.832 382.225C342.215 380.908 343.957 380.25 346.057 380.25C348.124 380.25 349.815 380.892 351.132 382.175C352.465 383.442 353.132 385.117 353.132 387.2C353.132 389.283 352.44 390.992 351.057 392.325C349.674 393.642 347.94 394.3 345.857 394.3C343.79 394.3 342.09 393.667 340.757 392.4C339.44 391.117 338.782 389.433 338.782 387.35ZM349.232 387.375C349.232 385.292 348.932 383.642 348.332 382.425C347.749 381.208 346.94 380.6 345.907 380.6C344.857 380.6 344.057 381.183 343.507 382.35C342.957 383.5 342.682 385.125 342.682 387.225C342.682 389.292 342.974 390.933 343.557 392.15C344.14 393.35 344.949 393.95 345.982 393.95C347.032 393.95 347.832 393.375 348.382 392.225C348.949 391.058 349.232 389.442 349.232 387.375ZM367.279 385.025V394H363.604V384.675C363.604 383.858 363.462 383.1 363.179 382.4C362.912 381.733 362.271 381.4 361.254 381.4C360.271 381.4 359.304 381.875 358.354 382.825V394H354.679V381.05L358.254 380.175H358.354V382.35C359.671 380.95 361.179 380.25 362.879 380.25C365.812 380.25 367.279 381.842 367.279 385.025Z" fill="#6C6B6B" />
  <path d="M155.496 363H151.596L150.046 346.65L144.221 361.85H144.121L137.396 347.5L136.746 355.025C136.663 356.058 136.621 357.067 136.621 358.05C136.621 359.933 136.78 361.583 137.096 363H135.021C135.571 360.883 135.98 358.225 136.246 355.025L136.971 346.575L136.171 344.875V344.8H140.421L145.796 356.4L150.246 344.8H153.796L155.496 363ZM157.042 356.35C157.042 354.25 157.725 352.542 159.092 351.225C160.475 349.908 162.217 349.25 164.317 349.25C166.383 349.25 168.075 349.892 169.392 351.175C170.725 352.442 171.392 354.117 171.392 356.2C171.392 358.283 170.7 359.992 169.317 361.325C167.933 362.642 166.2 363.3 164.117 363.3C162.05 363.3 160.35 362.667 159.017 361.4C157.7 360.117 157.042 358.433 157.042 356.35ZM167.492 356.375C167.492 354.292 167.192 352.642 166.592 351.425C166.008 350.208 165.2 349.6 164.167 349.6C163.117 349.6 162.317 350.183 161.767 351.35C161.217 352.5 160.942 354.125 160.942 356.225C160.942 358.292 161.233 359.933 161.817 361.15C162.4 362.35 163.208 362.95 164.242 362.95C165.292 362.95 166.092 362.375 166.642 361.225C167.208 360.058 167.492 358.442 167.492 356.375ZM187.039 362.35L183.539 363.275L182.864 361.175C181.597 362.592 180.156 363.3 178.539 363.3C176.906 363.3 175.539 362.667 174.439 361.4C173.339 360.117 172.789 358.5 172.789 356.55C172.789 354.467 173.439 352.733 174.739 351.35C176.039 349.95 177.622 349.25 179.489 349.25C180.772 349.25 181.881 349.617 182.814 350.35V343.8L186.389 342.75H186.489V360.625L187.039 362.35ZM182.814 360.575V352.225C182.581 351.425 182.206 350.8 181.689 350.35C181.189 349.883 180.614 349.65 179.964 349.65C178.914 349.65 178.106 350.233 177.539 351.4C176.972 352.55 176.689 354.175 176.689 356.275C176.689 360.225 177.739 362.2 179.839 362.2C180.889 362.2 181.881 361.658 182.814 360.575ZM201.485 355.4H192.385V355.5C192.385 357.55 192.785 359.117 193.585 360.2C194.385 361.283 195.477 361.825 196.86 361.825C198.56 361.825 199.994 361.092 201.16 359.625L201.46 359.8C199.877 362.133 197.777 363.3 195.16 363.3C193.227 363.3 191.644 362.683 190.41 361.45C189.177 360.217 188.56 358.583 188.56 356.55C188.56 354.367 189.227 352.608 190.56 351.275C191.91 349.925 193.644 349.25 195.76 349.25C197.71 349.25 199.169 349.825 200.135 350.975C201.119 352.125 201.569 353.6 201.485 355.4ZM192.385 355H198.21C198.244 354.367 198.26 354.025 198.26 353.975C198.26 352.675 198.01 351.625 197.51 350.825C197.01 350.025 196.36 349.625 195.56 349.625C194.644 349.625 193.902 350.133 193.335 351.15C192.785 352.117 192.469 353.4 192.385 355ZM212.118 349.4L211.143 352.125C210.726 351.908 210.285 351.8 209.818 351.8C209.201 351.8 208.651 352.008 208.168 352.425C207.685 352.825 207.343 353.375 207.143 354.075V363H203.468V350.05L206.943 349.175H207.043V353.3C207.376 352.05 207.893 351.067 208.593 350.35C209.31 349.617 210.118 349.25 211.018 349.25C211.401 349.25 211.768 349.3 212.118 349.4ZM226.054 354.025V363H222.379V353.675C222.379 352.858 222.237 352.1 221.954 351.4C221.687 350.733 221.045 350.4 220.029 350.4C219.045 350.4 218.079 350.875 217.129 351.825V363H213.454V350.05L217.029 349.175H217.129V351.35C218.445 349.95 219.954 349.25 221.654 349.25C224.587 349.25 226.054 350.842 226.054 354.025ZM233.142 362.05L233.717 359.9C234.251 360.75 235.084 361.467 236.217 362.05C237.334 362.617 238.442 362.9 239.542 362.9C240.659 362.9 241.542 362.6 242.192 362C242.859 361.4 243.192 360.633 243.192 359.7C243.192 359 242.992 358.408 242.592 357.925C242.226 357.458 241.801 357.075 241.317 356.775C240.834 356.475 240.126 356.125 239.192 355.725L237.942 355.2C237.009 354.783 236.276 354.4 235.742 354.05C234.142 353.017 233.342 351.592 233.342 349.775C233.342 348.258 233.917 347 235.067 346C236.234 345 237.742 344.5 239.592 344.5C240.592 344.5 241.592 344.642 242.592 344.925C243.576 345.208 244.326 345.483 244.842 345.75L244.342 347.675C242.742 345.825 241.051 344.9 239.267 344.9C238.234 344.9 237.409 345.183 236.792 345.75C236.192 346.317 235.892 347.033 235.892 347.9C235.942 348.817 236.259 349.533 236.842 350.05C237.426 350.55 238.376 351.092 239.692 351.675L240.942 352.2C241.742 352.533 242.526 352.942 243.292 353.425C244.909 354.425 245.717 355.867 245.717 357.75C245.717 359.317 245.126 360.633 243.942 361.7C242.776 362.767 241.201 363.3 239.217 363.3C238.167 363.3 237.001 363.158 235.717 362.875C234.484 362.575 233.626 362.3 233.142 362.05ZM261.382 356C261.382 358.083 260.732 359.825 259.432 361.225C258.132 362.608 256.549 363.3 254.682 363.3C253.382 363.3 252.274 362.925 251.357 362.175V368.7H247.682V350.05L251.257 349.175H251.357V351.325C252.64 349.942 254.065 349.25 255.632 349.25C257.265 349.25 258.632 349.892 259.732 351.175C260.832 352.442 261.382 354.05 261.382 356ZM257.482 356.275C257.482 352.292 256.457 350.3 254.407 350.3C253.29 350.3 252.274 350.85 251.357 351.95V360.3C251.59 361.1 251.957 361.733 252.457 362.2C252.974 362.65 253.557 362.875 254.207 362.875C255.257 362.875 256.065 362.3 256.632 361.15C257.199 360 257.482 358.375 257.482 356.275ZM275.484 362.275V362.425C274.65 362.975 273.717 363.25 272.684 363.25C271.2 363.25 270.342 362.617 270.109 361.35C268.875 362.617 267.434 363.25 265.784 363.25C264.734 363.25 263.884 362.958 263.234 362.375C262.584 361.775 262.259 361 262.259 360.05C262.259 358.917 262.742 357.983 263.709 357.25C264.692 356.5 266.042 356.033 267.759 355.85C268.659 355.783 269.434 355.717 270.084 355.65V354.275C270.084 353.008 269.884 352.025 269.484 351.325C269.117 350.608 268.317 350.25 267.084 350.25C265.8 350.25 264.567 350.717 263.384 351.65L263.159 351.375C263.959 350.642 264.759 350.108 265.559 349.775C266.375 349.425 267.35 349.25 268.484 349.25C272.017 349.25 273.784 350.842 273.784 354.025V360.425C273.784 361.192 273.85 361.7 273.984 361.95C274.117 362.2 274.45 362.325 274.984 362.325C275.05 362.325 275.217 362.308 275.484 362.275ZM270.084 360.875V356.025C267.25 356.358 265.834 357.542 265.834 359.575C265.834 360.358 266.009 360.967 266.359 361.4C266.725 361.833 267.2 362.05 267.784 362.05C268.584 362.05 269.35 361.658 270.084 360.875ZM276.06 356.475C276.027 354.358 276.702 352.617 278.085 351.25C279.469 349.883 281.135 349.217 283.085 349.25C285.219 349.25 286.935 349.983 288.235 351.45L286.96 352.575C286.344 351.542 285.769 350.792 285.235 350.325C284.702 349.858 284.094 349.625 283.41 349.625C282.36 349.625 281.527 350.158 280.91 351.225C280.31 352.275 280.01 353.725 280.01 355.575C280.01 357.592 280.369 359.142 281.085 360.225C281.819 361.292 282.827 361.825 284.11 361.825C285.66 361.825 286.985 361.075 288.085 359.575L288.385 359.75C286.835 362.117 284.869 363.3 282.485 363.3C280.652 363.3 279.119 362.675 277.885 361.425C276.669 360.158 276.06 358.508 276.06 356.475ZM302.096 355.4H292.996V355.5C292.996 357.55 293.396 359.117 294.196 360.2C294.996 361.283 296.087 361.825 297.471 361.825C299.171 361.825 300.604 361.092 301.771 359.625L302.071 359.8C300.487 362.133 298.387 363.3 295.771 363.3C293.837 363.3 292.254 362.683 291.021 361.45C289.787 360.217 289.171 358.583 289.171 356.55C289.171 354.367 289.837 352.608 291.171 351.275C292.521 349.925 294.254 349.25 296.371 349.25C298.321 349.25 299.779 349.825 300.746 350.975C301.729 352.125 302.179 353.6 302.096 355.4ZM292.996 355H298.821C298.854 354.367 298.871 354.025 298.871 353.975C298.871 352.675 298.621 351.625 298.121 350.825C297.621 350.025 296.971 349.625 296.171 349.625C295.254 349.625 294.512 350.133 293.946 351.15C293.396 352.117 293.079 353.4 292.996 355Z" fill="#6C6B6B" />
</svg>