<svg xmlns="http://www.w3.org/2000/svg" xml:space="preserve" width="300" height="300" baseProfile="tiny-ps" version="1.2"><g style="display:inline"><path d="M.146.146h79.367v78.782H.146z" style="display:inline;fill:#fff;fill-opacity:1;stroke-width:.264583"/><path d="m68.342 41.496-.13-7.519h-2.996l-.04-.413-.128-.62-.31-.84-.453-.853-.607-.671-.749-.517-.827-.272-1.11-.155-.802.04-.659.232-.684.413-.711.659-.4.556-.233.594-.116.93v.659l.09.607.258.736.414.672.426.543.607.44 1.008.451 1.227.388 1.318.426s1.318.4 1.383.414c.064.013 1.11.361 1.11.361l.711.4.866.608.49.504.634.762z" style="display:inline;fill:#f89520;fill-opacity:1;stroke-width:.264583"/><path d="m39.026 73.155.073-67.235L68.33 21.047l-.146 9.866s-.749-1.443-1.535-2.229c-.785-.785-.785-.803-.785-.803s-1.361-.759-1.462-.86c-.1-.1-1.79-.565-1.79-.565l-.95-.092-1.115-.018-1.096.11-1.078.31-1.133.603-1.17.804-.986 1.023-.694 1.188-.274.712-.165.786-.11 1.078.02.712.145.95.146.585.238.73.329.677.438.676.548.603.603.53.695.42.767.384 1.06.438 3.16 1.114s1.206.585 1.316.622c.11.036.785.53.785.53l.713.639.457.694.329.731.128.457.054.64-.036.876-.292 1.096-.53.823-.603.64-.75.547-.95.475-.986.146-1.023-.036-1.151-.329-1.151-.75-.822-.913-.494-1.114-.2-1.06-.019-.785h-3.8l.091 1.315.201 1.041.31.987.53 1.151.549.75.62.712.64.566.548.457.804.475.786.365.987.347 1.004.147h1.937c.548 0 .95-.037.95-.037s1.193-.268 1.455-.39c.263-.121 1.267-.651 1.395-.76a980.17 980.17 0 0 1 1.206-1.024l.786-.987.511-.84.055 10.195-15.658 7.49z" style="display:inline;fill:#f89520;fill-opacity:1;stroke-width:.264583"/><path d="M11.814 26.546V52.5h.011c.04-.028.111-.013.161-.019.18-.02.367.003.547 0 .637-.008 1.271 0 1.908-.003h.611c.072 0 .179.024.214-.065.03-.074-.013-.197-.007-.278.025-.337.007-.68.007-1.018V33.685c0-.275 0-.55-.01-.825-.002-.046-.046-.252.038-.252.033 0 .053.046.067.07.04.066.102.104.124.182.09.319.263.607.371.922.058.17.141.329.214.493.025.056.026.116.049.172.021.05.062.09.085.139.091.197.165.41.252.611.32.743.601 1.5.927 2.24.205.466.385.94.584 1.405.058.138.137.27.192.407.021.052.022.11.044.161.101.237.223.47.321.708.06.147.102.305.167.45.022.05.063.09.085.14.025.057.024.123.05.182.335.762.65 1.535.965 2.304.1.242.223.478.323.719.06.147.104.305.169.45.022.05.061.09.082.14.225.538.432 1.09.661 1.629.1.236.223.47.317.707.194.487.387.976.61 1.448.028.06.026.132.053.193.084.19.164.386.249.578.318.724.618 1.448.928 2.177.12.283.238.567.36.847.05.114.068.29.166.379.052.046.126.02.187.02l.483-.003c.482 0 .965-.005 1.447 0 .146.002.292-.001.44 0 .078.001.147.018.225-.008.099-.034.087-.137.125-.217.066-.138.137-.276.196-.418.028-.068.032-.138.068-.204.148-.27.225-.57.352-.847.305-.66.561-1.337.846-2.004 1.079-2.529 2.128-5.055 3.183-7.59.178-.428.377-.85.558-1.276.023-.055.025-.117.05-.172.023-.052.063-.095.085-.15.14-.344.263-.7.416-1.04.128-.283.235-.573.359-.857.073-.17.19-.344.23-.525.016-.081.065-.14.097-.215.08-.189.16-.378.238-.568.262-.632.515-1.268.783-1.897.115-.272.272-.542.35-.826.016-.06.059-.104.084-.16.067-.153.12-.315.177-.472.021-.061.068-.108.084-.172.015-.059.048-.255.154-.212.035.015.034.063.038.094.013.095.006.194.006.29V52.242c0 .067-.033.16.024.21.066.059.197.027.277.026.246 0 .494.018.74.001.122-.008.242.01.364.01.396-.003.794.008 1.19-.006.192-.007.386-.005.579-.005.1 0 .227-.01.321.022.06-.477.011-.989.011-1.469V28.015c0-.481.05-.993-.01-1.47-.136.051-.34.019-.483.013-.22-.01-.454-.001-.676 0-.774.004-1.551.008-2.326.01-.28 0-.558-.013-.836-.001-.112.004-.23-.039-.332.028-.094.06-.08.161-.121.25-.091.193-.16.401-.259.59-.142.274-.24.572-.358.858a140.23 140.23 0 0 1-.727 1.715c-.722 1.682-1.441 3.37-2.159 5.05-.574 1.344-1.104 2.694-1.701 4.03-.068.154-.111.322-.181.472-.439.943-.798 1.917-1.22 2.873a54.107 54.107 0 0 0-.85 2.016c-.065.161-.162.316-.221.482-.065.181-.157.347-.23.525-.058.145-.1.298-.167.44-.07.153-.16.308-.21.472-.04.136-.104.258-.145.396-.01.038-.038.085-.081.09-.138.015-.165-.183-.194-.272-.02-.063-.063-.112-.09-.171-.023-.052-.024-.11-.047-.161-.077-.175-.171-.342-.224-.526-.02-.065-.068-.11-.096-.171-.04-.088-.078-.189-.116-.279-.165-.394-.333-.785-.499-1.18-.196-.466-.388-.938-.595-1.403-.07-.157-.11-.332-.191-.483-.146-.269-.235-.567-.355-.847-.225-.527-.482-1.04-.693-1.576-.132-.335-.26-.678-.405-1.007-.441-1-.843-2.014-1.3-3.002-.11-.238-.186-.497-.291-.74-.142-.33-.303-.654-.442-.986-.446-1.06-.876-2.128-1.35-3.173-.155-.343-.27-.707-.423-1.05-.272-.607-.548-1.218-.8-1.834-.118-.29-.248-.57-.364-.858-.04-.1-.091-.2-.13-.3-.025-.065-.026-.135-.072-.193-.09-.113-.253-.087-.382-.08-.263.017-.53.005-.793.005-.837 0-1.671-.014-2.509-.01-.217 0-.437-.003-.654.005-.096.003-.268.029-.353-.016m20.432 29.288a.745.745 0 0 0-.482-.161c-.672 0-1.071.642-.982 1.265.072.5.508.922 1.036.78a.986.986 0 0 0 .44-.276l.096.3.514-.14-.073-.257-.002-1.018v-1.608l-.396.106-.14.051-.01.26v.698m7.514 1.415-.096.31c.1.058.22.084.332.112.307.076.672.123.976.013.416-.152.665-.609.503-1.036-.218-.573-.973-.487-1.314-.921-.252-.322.066-.712.425-.697a.905.905 0 0 1 .525.215c.072.058.134.15.215.192.008-.061.087-.23.052-.282-.02-.03-.083-.046-.117-.057a2.362 2.362 0 0 0-.3-.09c-.45-.093-1.073-.01-1.23.504a.8.8 0 0 0-.035.236c0 .503.44.712.847.877.229.092.546.234.595.506.058.318-.211.545-.51.557-.327.013-.68-.178-.868-.44m-14.418-2.23c.035.086.102.178.115.269.03.196-.036.434-.05.632-.027.39-.056.783-.113 1.169-.03.202-.097.408-.113.611h.3a5.781 5.781 0 0 1-.064-1.008c.018-.421.103-.843.107-1.265h.01l.292.633.684 1.469h.022l.205-.526.652-1.694.056.558.115 1.19.043.46.028.172.155.011h.407l-.052-.568-.132-1.447-.062-.665h-.376c-.04 0-.11-.013-.144.011-.035.024-.049.09-.063.128a14.45 14.45 0 0 1-.118.311c-.162.409-.363.831-.479 1.254l-.563-1.21-.163-.355-.071-.128-.178-.011h-.45m9.948 2.68h.547v-.911c0-.133-.028-.301.008-.429.082-.29.336-.325.581-.268l.14-.397c-.38-.098-.66.21-.74.558h-.01v-.59l-.376.09-.139.047-.01.142v1.758m1.478 0h.537v-1.136c0-.14-.043-.362.006-.493.072-.195.45-.291.615-.18.153.103.15.338.15.501V57.7h.547v-1.03c0-.208.021-.432-.05-.632-.203-.568-.938-.38-1.268-.064v-.31l-.386.089-.14.047-.01.142v1.758m5.585.847v-.965c.136.116.306.16.482.16.706 0 1.093-.683.973-1.328-.089-.475-.534-.852-1.026-.714a.971.971 0 0 0-.43.274v-.31l-.407.092-.132.051-.007.178V58.353l.011.176.14.017h.396m-12.961-2.869c-.198.027-.384.08-.547.201-.482.356-.543 1.143-.125 1.573.23.236.586.326.908.288.167-.02.328-.07.471-.16.488-.307.618-1.046.274-1.51-.22-.297-.617-.44-.981-.392m5.607 1.55c-.071-.029-.103.04-.15.084a.798.798 0 0 1-.333.19.807.807 0 0 1-.236.026c-.484-.021-.621-.545-.621-.943h1.34c0-.259-.04-.517-.237-.706-.153-.15-.38-.205-.589-.205-.458 0-.873.235-1.022.686-.122.371-.07.84.22 1.123.477.464 1.293.283 1.628-.255m9.123-1.243v.01l.032.033h.01c.214-.17.686-.352.88-.054.122.187.096.431.096.643-.33.014-.746.037-.997.28-.251.244-.187.698.16.813.304.1.629-.036.848-.246.037.275.347.309.568.252.076-.02.187-.05.225-.123-.075.01-.156.02-.211-.044-.048-.055-.046-.156-.046-.224v-.504c0-.243.042-.53-.048-.761-.155-.397-.694-.451-1.056-.35a1.092 1.092 0 0 0-.461.275m3.762 1.233c-.083-.028-.198.15-.268.198-.174.118-.422.159-.61.047-.397-.234-.405-.871-.305-1.264.049-.189.155-.4.358-.456.205-.055.37.078.489.231.033.043.076.148.126.17.063.027.206-.128.155-.191-.374-.462-1.168-.318-1.519.075-.312.35-.32.962-.055 1.34.312.443.961.492 1.372.163.096-.078.218-.194.257-.313m2.048.01c-.071-.028-.114.04-.16.086a.755.755 0 0 1-.557.213c-.485-.033-.623-.537-.623-.942h1.34c0-.26-.04-.516-.236-.706-.156-.152-.378-.205-.59-.205-.459 0-.874.233-1.025.686-.12.362-.067.836.211 1.114.475.476 1.303.296 1.64-.246M29.428 55.73c.238-.04.386.138.465.34.138.351.137.84.036 1.2-.048.17-.144.382-.34.415-.25.042-.406-.143-.479-.361-.12-.361-.123-.8-.029-1.169.046-.178.145-.391.347-.425m2.401.003c.196 0 .354.155.407.337.027.089.011.197.011.289v.557c0 .118.042.334-.01.44-.068.134-.276.225-.418.225-.233 0-.368-.174-.422-.386a2.105 2.105 0 0 1 .024-1.083c.06-.193.187-.38.408-.38m2.691.788h-.857c0-.218.054-.484.196-.654.177-.212.457-.16.583.075.098.183.08.381.078.579m14.934 0h-.858c0-.218.054-.483.196-.654.127-.152.351-.192.498-.041.184.189.164.455.164.695m-6.658-.693c.218-.01.34.165.4.35.11.338.091.787-.01 1.125-.052.171-.17.366-.368.375-.22.01-.393-.131-.453-.342-.023-.083-.008-.184-.008-.268v-.547c0-.125-.044-.35.012-.461.071-.142.278-.225.427-.232m2.348.843v.493c0 .066.017.162-.008.224-.08.195-.41.223-.537.076-.16-.186-.076-.51.105-.646.128-.094.288-.118.44-.147m-25.16 3.677h-.247c.001.126.151.086.246.086v1.897h.547v-1.897c.139 0 .48.066.536-.086h-.536c0-.255-.071-.643.193-.795.137-.078.306-.06.45-.013.055.018.127.07.15-.007-.406-.216-1.056-.367-1.287.182-.082.195-.053.426-.053.633m9.874 1.983h.547v-1.136c0-.141-.043-.361.006-.493.073-.199.45-.292.615-.174.15.108.14.343.14.506v1.297h.546v-1.05c0-.207.022-.424-.05-.622-.202-.555-.94-.371-1.257-.054V59.35l-.397.104-.14.052-.01.208v2.616m13.068-1.876c-.197-.093-.354-.164-.579-.149-.66.045-.996.734-.881 1.328.091.474.515.84 1.01.722.193-.045.306-.173.46-.282l.086.3.526-.14c-.12-.366-.086-.742-.086-1.125V59.35l-.386.103-.139.053-.011.262v.686m-15.802-.74v.011l.236.236.107.084.107-.084.236-.236-.246-.257-.097-.073-.107.084-.236.235m4.91 0v.011l.236.236.107.084.107-.084.236-.236-.246-.257-.097-.073-.107.084-.236.235m23.381.354c.088-.061.16-.15.236-.225.029-.028.083-.066.093-.107.01-.039-.038-.073-.06-.097-.052-.051-.192-.256-.269-.247-.084.01-.21.188-.268.247-.024.025-.065.058-.052.097.04.116.234.246.32.332m-16.724.89c-.475.113-.82.682-.468 1.104.314.376 1.01.399 1.423.196.118-.059.253-.13.332-.239h.01l.365.312.182.117v-.429c0-.057.015-.138-.006-.192-.034-.084-.204-.196-.283-.236.134-.303.086-.675.086-.997l-.204.064c.03.106.087.2.11.31.043.194.008.38-.035.569-.194-.128-.367-.299-.547-.446-.26-.213-.539-.415-.771-.658-.15-.157-.236-.403-.107-.6.204-.31.618-.17.713.15a.693.693 0 0 1-.043.514c-.044.075-.12.126-.156.204.097.036.23-.052.31-.104.295-.19.338-.57.065-.804-.44-.377-1.23-.174-1.305.436-.038.312.167.5.33.729m15.694-1.297-.369.472-.17.203-.233.032c.008.102.17.065.247.065v1.179c0 .215-.02.438.115.622.139.186.471.16.667.105.123-.034.238-.099.343-.17l-.021-.053c-.141.058-.347.167-.48.03-.114-.116-.078-.333-.078-.48v-1.233h.354l.16-.007.055-.08h-.569v-.481l-.021-.204m-17.678.815h-.01c-.097-.105-.282-.146-.419-.162-.346-.039-.761.037-.962.355-.2.315-.062.804.308.921v.011c-.228.084-.497.37-.296.611.108.13.28.14.436.151.21.015.422.024.632.041.128.01.292.03.383.13.16.18-.002.396-.168.493-.313.183-.992.24-1.165-.16-.066-.152-.016-.288.007-.44-.082.023-.244.038-.304.1-.201.214.088.51.272.586a1.63 1.63 0 0 0 1.404-.105c.255-.157.435-.487.27-.774-.21-.364-.815-.249-1.16-.294-.098-.013-.424.014-.385-.167a.206.206 0 0 1 .139-.138c.052-.01.12.023.171.033.099.018.2.023.3.019.48-.021.993-.434.758-.954a.718.718 0 0 0-.157-.215c.16-.052.261-.001.418.022l.032-.365a.551.551 0 0 0-.504.3m-14.183 1.576.107.322.365-.095.138-.05-.031-.144-.032-.322v-1.469c-.132.011-.269.058-.397.09-.038.01-.113.014-.139.047-.049.063-.01.277-.01.356v.858c0 .09.03.255-.018.332-.16.252-.62.345-.718 0-.057-.201-.037-.425-.037-.632v-1.05c-.13.017-.259.057-.386.09-.036.008-.114.012-.139.044-.03.04-.01.14-.01.187v.504c0 .3-.065.687.074.965.149.297.572.357.858.241.152-.061.26-.16.375-.274m.944.28h.546v-.912c0-.131-.029-.303.01-.429.088-.288.33-.326.58-.268l.14-.396c-.351-.091-.678.188-.73.536h-.01v-.569l-.386.09-.14.047-.01.142v1.758m1.479 0h.536v-1.136c0-.14-.042-.362.006-.493.074-.2.462-.292.626-.174.148.106.14.345.14.506v1.297h.547v-1.029c0-.209.02-.432-.05-.632-.204-.568-.938-.381-1.269-.065v-.31l-.386.09-.139.046-.011.142v1.758m2.251 0h.536v-2.037l-.386.09-.139.047-.01.142v1.758m4.91 0h.535v-2.037l-.386.09-.139.047-.01.142v1.758m.942 0h.547v-1.136c0-.14-.042-.361.007-.493.072-.196.452-.293.615-.176.151.108.15.341.15.508v1.297h.547v-1.029c0-.208.018-.434-.054-.632-.203-.56-.938-.39-1.265-.065v-.31l-.386.087-.15.049-.01.142v1.758m17.195 0h.536v-.868c0-.138-.02-.293.003-.429a.446.446 0 0 1 .276-.331c.119-.042.205.003.321.02l.14-.396c-.36-.094-.687.19-.74.546h-.01v-.579l-.376.087-.139.048-.011.144v1.758m4.9 0h.546v-2.037l-.397.09-.139.047-.01.142v1.758m3.269 0h.547v-1.136c0-.14-.043-.361.006-.493.073-.197.451-.292.615-.176.149.105.15.345.15.508v1.297h.537v-1.05c0-.197.025-.412-.04-.6-.197-.571-.937-.407-1.268-.076v-.31l-.397.09-.14.046-.01.142v1.758m-30.307-.364h-.01l-.075.257c.3.175.824.218 1.147.087.298-.12.49-.431.388-.752-.106-.334-.496-.425-.785-.542-.116-.047-.26-.102-.334-.208-.154-.217.059-.434.28-.45.31-.021.466.147.697.31l.065-.225c-.302-.16-.757-.204-1.072-.06-.31.14-.466.534-.273.832.155.24.494.32.744.42.133.054.308.13.356.277.071.217-.131.392-.334.407a.916.916 0 0 1-.794-.353m16.22-.75h1.008c.064 0 .291.034.332-.018.03-.038.004-.12 0-.165a.803.803 0 0 0-.214-.504c-.3-.307-.876-.29-1.222-.067-.553.355-.64 1.255-.14 1.695.209.183.483.227.75.216.254-.011.49-.134.666-.31.028-.03.178-.161.14-.208-.029-.038-.101.061-.119.078a.77.77 0 0 1-.611.221c-.456-.065-.589-.542-.59-.939m3.356.633c-.084-.028-.199.148-.268.196-.18.122-.429.161-.622.045-.417-.25-.413-.99-.255-1.388.118-.298.433-.455.694-.222.097.086.165.201.236.307.049-.018.194-.109.179-.171-.022-.089-.198-.18-.275-.216a1.173 1.173 0 0 0-.815-.047.975.975 0 0 0-.451.306c-.392.47-.305 1.27.226 1.596.427.263 1.163.089 1.35-.406m1.084-1.54a1.156 1.156 0 0 0-.526.19c-.47.324-.568 1.082-.2 1.521.235.282.614.394.972.351.33-.04.638-.215.8-.511.313-.568.046-1.376-.618-1.523a1.26 1.26 0 0 0-.428-.027m2.937.295.021.054c.131-.055.233-.149.376-.183a.798.798 0 0 1 .193-.02c.444 0 .428.464.428.792-.34.015-.783.038-1.027.311-.224.253-.14.69.202.786.308.086.61-.042.836-.25.024.272.336.303.547.258.075-.017.21-.048.236-.129-.07.009-.157.018-.207-.045-.055-.07-.04-.194-.04-.277v-.654c0-.206.022-.432-.078-.621-.204-.384-.814-.391-1.166-.236-.12.054-.215.14-.321.214m5.242-.295c-.21.028-.396.084-.568.215-.46.35-.517 1.13-.117 1.549.232.243.593.336.921.297a1.09 1.09 0 0 0 .46-.154c.487-.31.634-1.03.293-1.505-.22-.306-.618-.452-.989-.402m-20.894.052c.182-.024.306.106.367.265.109.287.123.952-.281 1.004-.175.023-.3-.102-.36-.254-.11-.28-.126-.963.274-1.015m6.443.003c.211 0 .362.166.418.358.025.087.01.19.01.279v.536c0 .118.043.334-.01.44-.068.135-.272.234-.418.235-.234.003-.365-.165-.424-.375a2.029 2.029 0 0 1 .017-1.083c.06-.192.183-.39.407-.39m1.833.787c.028-.22.049-.447.184-.633.108-.147.298-.212.46-.107.17.11.225.357.225.547 0 .042.02.153-.018.182-.044.035-.174.011-.229.011h-.622m4.481-.79c.239-.035.387.146.462.35.132.36.13.81.035 1.18-.045.177-.145.391-.347.425-.244.04-.394-.14-.47-.35-.129-.353-.131-.83-.029-1.19.05-.176.146-.385.35-.415m8.179 0c.23-.033.376.144.452.34.137.354.14.837.037 1.2-.05.172-.148.391-.35.416-.246.031-.393-.147-.468-.362-.124-.359-.123-.802-.029-1.169.047-.184.149-.395.358-.425m-17.067 1.605c-.086.12-.256.196-.396.232-.431.107-.884-.074-.953-.554a.892.892 0 0 1 .055-.504c.02-.042.067-.136.126-.126.063.012.133.105.182.145.146.12.292.241.44.36.182.149.358.307.546.447m12.8-.665v.482c0 .068.017.162-.006.226-.068.184-.395.24-.525.104-.177-.186-.098-.525.092-.666.128-.095.287-.118.44-.146z" style="fill:#606060;stroke:none"/></g></svg>