<?xml version="1.0" encoding="utf-8"?>
<svg width="77" height="77" viewBox="0 0 74 77" fill="none" version="1.2" baseProfile="tiny-ps" xmlns="http://www.w3.org/2000/svg">
  <title>3</title>
  <rect width="74" height="77" fill="white" />
  <path d="M69 60L37.5 75.5V3L69 19V60Z" fill="#F8951E" />
  <path d="M10.98 32.796V54H6.458V27.096H12.804L21.506 48.262L30.284 27.096H36.63V54H32.108V32.758L23.292 54H19.796L10.98 32.796Z" fill="#666666" />
  <path d="M28.6634 59H27.9926L27.726 56.1878L26.7241 58.8022H26.7069L25.5502 56.334L25.4384 57.6283C25.4241 57.806 25.4169 57.9795 25.4169 58.1486C25.4169 58.4725 25.4441 58.7563 25.4986 59H25.1417C25.2363 58.6359 25.3065 58.1787 25.3524 57.6283L25.4771 56.1749L25.3395 55.8825V55.8696H26.0705L26.995 57.8648L27.7604 55.8696H28.371L28.6634 59ZM28.9292 57.8562C28.9292 57.495 29.0467 57.2012 29.2818 56.9747C29.5197 56.7482 29.8193 56.635 30.1805 56.635C30.536 56.635 30.8269 56.7454 31.0534 56.9661C31.2827 57.184 31.3974 57.4721 31.3974 57.8304C31.3974 58.1887 31.2784 58.4826 31.0405 58.7119C30.8026 58.9384 30.5044 59.0516 30.1461 59.0516C29.7906 59.0516 29.4982 58.9427 29.2689 58.7248C29.0424 58.5041 28.9292 58.2145 28.9292 57.8562ZM30.7266 57.8605C30.7266 57.5022 30.675 57.2184 30.5718 57.0091C30.4715 56.7998 30.3324 56.6952 30.1547 56.6952C29.9741 56.6952 29.8365 56.7955 29.7419 56.9962C29.6473 57.194 29.6 57.4735 29.6 57.8347C29.6 58.1902 29.6502 58.4725 29.7505 58.6818C29.8508 58.8882 29.9899 58.9914 30.1676 58.9914C30.3482 58.9914 30.4858 58.8925 30.5804 58.6947C30.6779 58.494 30.7266 58.216 30.7266 57.8605ZM34.0887 58.8882L33.4867 59.0473L33.3706 58.6861C33.1527 58.9298 32.9048 59.0516 32.6267 59.0516C32.3458 59.0516 32.1107 58.9427 31.9215 58.7248C31.7323 58.5041 31.6377 58.226 31.6377 57.8906C31.6377 57.5323 31.7495 57.2341 31.9731 56.9962C32.1967 56.7554 32.469 56.635 32.7901 56.635C33.0108 56.635 33.2015 56.6981 33.362 56.8242V55.6976L33.9769 55.517H33.9941V58.5915L34.0887 58.8882ZM33.362 58.5829V57.1467C33.3219 57.0091 33.2574 56.9016 33.1685 56.8242C33.0825 56.7439 32.9836 56.7038 32.8718 56.7038C32.6912 56.7038 32.5522 56.8041 32.4547 57.0048C32.3572 57.2026 32.3085 57.4821 32.3085 57.8433C32.3085 58.5227 32.4891 58.8624 32.8503 58.8624C33.0309 58.8624 33.2015 58.7692 33.362 58.5829ZM36.5735 57.6928H35.0083V57.71C35.0083 58.0626 35.0771 58.3321 35.2147 58.5184C35.3523 58.7047 35.54 58.7979 35.778 58.7979C36.0704 58.7979 36.3169 58.6718 36.5176 58.4195L36.5692 58.4496C36.2968 58.8509 35.9356 59.0516 35.4856 59.0516C35.153 59.0516 34.8807 58.9455 34.6686 58.7334C34.4564 58.5213 34.3504 58.2403 34.3504 57.8906C34.3504 57.5151 34.465 57.2126 34.6944 56.9833C34.9266 56.7511 35.2247 56.635 35.5888 56.635C35.9242 56.635 36.175 56.7339 36.3413 56.9317C36.5104 57.1295 36.5878 57.3832 36.5735 57.6928ZM35.0083 57.624H36.0102C36.0159 57.5151 36.0188 57.4563 36.0188 57.4477C36.0188 57.2241 35.9758 57.0435 35.8898 56.9059C35.8038 56.7683 35.692 56.6995 35.5544 56.6995C35.3967 56.6995 35.2691 56.7869 35.1717 56.9618C35.0771 57.1281 35.0226 57.3488 35.0083 57.624ZM38.4023 56.6608L38.2346 57.1295C38.163 57.0922 38.087 57.0736 38.0067 57.0736C37.9007 57.0736 37.8061 57.1094 37.7229 57.1811C37.6398 57.2499 37.581 57.3445 37.5466 57.4649V59H36.9145V56.7726L37.5122 56.6221H37.5294V57.3316C37.5868 57.1166 37.6756 56.9475 37.796 56.8242C37.9193 56.6981 38.0583 56.635 38.2131 56.635C38.2791 56.635 38.3421 56.6436 38.4023 56.6608ZM40.7992 57.4563V59H40.1671V57.3961C40.1671 57.2556 40.1427 57.1252 40.094 57.0048C40.0481 56.8901 39.9378 56.8328 39.7629 56.8328C39.5938 56.8328 39.4275 56.9145 39.2641 57.0779V59H38.632V56.7726L39.2469 56.6221H39.2641V56.9962C39.4906 56.7554 39.75 56.635 40.0424 56.635C40.5469 56.635 40.7992 56.9088 40.7992 57.4563ZM42.0185 58.8366L42.1174 58.4668C42.2091 58.613 42.3524 58.7363 42.5474 58.8366C42.7394 58.9341 42.9301 58.9828 43.1193 58.9828C43.3113 58.9828 43.4633 58.9312 43.5751 58.828C43.6897 58.7248 43.7471 58.5929 43.7471 58.4324C43.7471 58.312 43.7127 58.2102 43.6439 58.1271C43.5808 58.0468 43.5077 57.9809 43.4246 57.9293C43.3414 57.8777 43.2196 57.8175 43.0591 57.7487L42.8441 57.6584C42.6835 57.5867 42.5574 57.5208 42.4657 57.4606C42.1905 57.2829 42.0529 57.0378 42.0529 56.7253C42.0529 56.4644 42.1518 56.248 42.3496 56.076C42.5502 55.904 42.8097 55.818 43.1279 55.818C43.2999 55.818 43.4719 55.8424 43.6439 55.8911C43.813 55.9398 43.942 55.9871 44.0309 56.033L43.9449 56.3641C43.6697 56.0459 43.3787 55.8868 43.072 55.8868C42.8942 55.8868 42.7523 55.9355 42.6463 56.033C42.5431 56.1305 42.4915 56.2537 42.4915 56.4028C42.5001 56.5605 42.5545 56.6837 42.6549 56.7726C42.7552 56.8586 42.9186 56.9518 43.1451 57.0521L43.3601 57.1424C43.4977 57.1997 43.6324 57.27 43.7643 57.3531C44.0423 57.5251 44.1814 57.7731 44.1814 58.097C44.1814 58.3665 44.0796 58.5929 43.8761 58.7764C43.6754 58.9599 43.4045 59.0516 43.0634 59.0516C42.8828 59.0516 42.6821 59.0272 42.4614 58.9785C42.2492 58.9269 42.1016 58.8796 42.0185 58.8366ZM46.8757 57.796C46.8757 58.1543 46.7639 58.4539 46.5403 58.6947C46.3167 58.9326 46.0444 59.0516 45.7233 59.0516C45.4997 59.0516 45.3091 58.9871 45.1514 58.8581V59.9804H44.5193V56.7726L45.1342 56.6221H45.1514V56.9919C45.3721 56.754 45.6172 56.635 45.8867 56.635C46.1676 56.635 46.4027 56.7454 46.5919 56.9661C46.7811 57.184 46.8757 57.4606 46.8757 57.796ZM46.2049 57.8433C46.2049 57.1582 46.0286 56.8156 45.676 56.8156C45.4839 56.8156 45.3091 56.9102 45.1514 57.0994V58.5356C45.1915 58.6732 45.2546 58.7821 45.3406 58.8624C45.4295 58.9398 45.5298 58.9785 45.6416 58.9785C45.8222 58.9785 45.9612 58.8796 46.0587 58.6818C46.1562 58.484 46.2049 58.2045 46.2049 57.8433ZM49.3012 58.8753V58.9011C49.1579 58.9957 48.9973 59.043 48.8196 59.043C48.5645 59.043 48.4168 58.9341 48.3767 58.7162C48.1646 58.9341 47.9166 59.043 47.6328 59.043C47.4522 59.043 47.306 58.9928 47.1942 58.8925C47.0824 58.7893 47.0265 58.656 47.0265 58.4926C47.0265 58.2977 47.1096 58.1371 47.2759 58.011C47.445 57.882 47.6772 57.8017 47.9725 57.7702C48.1273 57.7587 48.2606 57.7473 48.3724 57.7358V57.4993C48.3724 57.2814 48.338 57.1123 48.2692 56.9919C48.2061 56.8686 48.0685 56.807 47.8564 56.807C47.6357 56.807 47.4235 56.8873 47.22 57.0478L47.1813 57.0005C47.3189 56.8744 47.4565 56.7826 47.5941 56.7253C47.7346 56.6651 47.9023 56.635 48.0972 56.635C48.7049 56.635 49.0088 56.9088 49.0088 57.4563V58.5571C49.0088 58.689 49.0203 58.7764 49.0432 58.8194C49.0661 58.8624 49.1235 58.8839 49.2152 58.8839C49.2267 58.8839 49.2553 58.881 49.3012 58.8753ZM48.3724 58.6345V57.8003C47.8851 57.8576 47.6414 58.0612 47.6414 58.4109C47.6414 58.5456 47.6715 58.6503 47.7317 58.7248C47.7948 58.7993 47.8765 58.8366 47.9768 58.8366C48.1144 58.8366 48.2463 58.7692 48.3724 58.6345ZM49.4004 57.8777C49.3946 57.5136 49.5107 57.2141 49.7487 56.979C49.9866 56.7439 50.2733 56.6293 50.6087 56.635C50.9756 56.635 51.2709 56.7611 51.4945 57.0134L51.2752 57.2069C51.1691 57.0292 51.0702 56.9002 50.9785 56.8199C50.8867 56.7396 50.7821 56.6995 50.6646 56.6995C50.484 56.6995 50.3406 56.7912 50.2346 56.9747C50.1314 57.1553 50.0798 57.4047 50.0798 57.7229C50.0798 58.0698 50.1414 58.3364 50.2647 58.5227C50.3908 58.7062 50.5642 58.7979 50.785 58.7979C51.0516 58.7979 51.2795 58.6689 51.4687 58.4109L51.5203 58.441C51.2537 58.8481 50.9154 59.0516 50.5055 59.0516C50.1901 59.0516 49.9264 58.9441 49.7143 58.7291C49.505 58.5112 49.4004 58.2274 49.4004 57.8777ZM53.8785 57.6928H52.3133V57.71C52.3133 58.0626 52.3821 58.3321 52.5197 58.5184C52.6573 58.7047 52.845 58.7979 53.083 58.7979C53.3754 58.7979 53.6219 58.6718 53.8226 58.4195L53.8742 58.4496C53.6018 58.8509 53.2406 59.0516 52.7906 59.0516C52.458 59.0516 52.1857 58.9455 51.9736 58.7334C51.7614 58.5213 51.6554 58.2403 51.6554 57.8906C51.6554 57.5151 51.77 57.2126 51.9994 56.9833C52.2316 56.7511 52.5297 56.635 52.8938 56.635C53.2292 56.635 53.48 56.7339 53.6463 56.9317C53.8154 57.1295 53.8928 57.3832 53.8785 57.6928ZM52.3133 57.624H53.3152C53.3209 57.5151 53.3238 57.4563 53.3238 57.4477C53.3238 57.2241 53.2808 57.0435 53.1948 56.9059C53.1088 56.7683 52.997 56.6995 52.8594 56.6995C52.7017 56.6995 52.5741 56.7869 52.4767 56.9618C52.3821 57.1281 52.3276 57.3488 52.3133 57.624ZM18.4203 61.436V61.848H19.0123L18.9603 61.936H18.4203V64H17.8283V61.936H17.5683V61.848H17.8283V61.512C17.8283 61.272 17.8963 61.084 18.0323 60.948C18.1709 60.812 18.3536 60.744 18.5803 60.744C18.8283 60.744 19.0656 60.8213 19.2923 60.976L19.2603 61.024C19.1243 60.9573 18.9936 60.924 18.8683 60.924C18.7269 60.924 18.6163 60.968 18.5363 61.056C18.4589 61.144 18.4203 61.2707 18.4203 61.436ZM21.2687 63.896L20.7047 64.044L20.5887 63.692C20.3807 63.9293 20.142 64.048 19.8727 64.048C19.4007 64.048 19.1647 63.7933 19.1647 63.284V61.928L19.7407 61.788H19.7567V63.336C19.7567 63.4773 19.778 63.6 19.8207 63.704C19.8633 63.8107 19.966 63.864 20.1287 63.864C20.278 63.864 20.4313 63.7773 20.5887 63.604V61.928L21.1647 61.788H21.1807V63.62L21.2687 63.896ZM23.0023 61.824L22.8463 62.26C22.7797 62.2253 22.709 62.208 22.6343 62.208C22.5357 62.208 22.4477 62.2413 22.3703 62.308C22.293 62.372 22.2383 62.46 22.2063 62.572V64H21.6183V61.928L22.1743 61.788H22.1903V62.448C22.2437 62.248 22.3263 62.0907 22.4383 61.976C22.553 61.8587 22.6823 61.8 22.8263 61.8C22.8877 61.8 22.9463 61.808 23.0023 61.824ZM25.232 62.564V64H24.644V62.508C24.644 62.3773 24.6213 62.256 24.576 62.144C24.5333 62.0373 24.4307 61.984 24.268 61.984C24.1107 61.984 23.956 62.06 23.804 62.212V64H23.216V61.928L23.788 61.788H23.804V62.136C24.0147 61.912 24.256 61.8 24.528 61.8C24.9973 61.8 25.232 62.0547 25.232 62.564ZM25.9574 61.54L25.5854 61.168L25.9574 60.796L26.3254 61.168L25.9574 61.54ZM25.6614 64V61.928L26.2334 61.788H26.2494V64H25.6614ZM26.5607 63.884L26.6407 63.596C26.7287 63.7133 26.842 63.8093 26.9807 63.884C27.122 63.956 27.27 63.992 27.4247 63.992C27.5687 63.992 27.682 63.96 27.7647 63.896C27.85 63.832 27.8927 63.7467 27.8927 63.64C27.8927 63.5413 27.8553 63.4613 27.7807 63.4C27.706 63.3387 27.5807 63.2747 27.4047 63.208L27.2367 63.144C27.1247 63.1013 27.022 63.0547 26.9287 63.004C26.7047 62.876 26.5927 62.6973 26.5927 62.468C26.5927 62.276 26.6673 62.1173 26.8167 61.992C26.9687 61.864 27.174 61.8 27.4327 61.8C27.6967 61.8 27.9327 61.8507 28.1407 61.952L28.0727 62.204C27.8753 61.972 27.642 61.856 27.3727 61.856C27.2447 61.856 27.142 61.8867 27.0647 61.948C26.99 62.0067 26.9527 62.084 26.9527 62.18C26.958 62.2387 26.97 62.288 26.9887 62.328C27.01 62.3653 27.046 62.4013 27.0967 62.436C27.1473 62.4707 27.1927 62.4973 27.2327 62.516C27.2753 62.5347 27.346 62.564 27.4447 62.604L27.6087 62.664C27.734 62.7147 27.8367 62.7627 27.9167 62.808C28.1407 62.9333 28.2527 63.116 28.2527 63.356C28.2527 63.5533 28.174 63.7187 28.0167 63.852C27.8593 63.9827 27.642 64.048 27.3647 64.048C27.21 64.048 27.0553 64.0307 26.9007 63.996C26.738 63.9587 26.6247 63.9213 26.5607 63.884ZM30.5642 62.564V64H29.9722V62.508C29.9722 62.3773 29.9496 62.256 29.9042 62.144C29.8616 62.0373 29.7602 61.984 29.6002 61.984C29.4429 61.984 29.2882 62.06 29.1362 62.212V64H28.5442V60.928L29.1202 60.76H29.1362V62.132C29.3522 61.9107 29.5922 61.8 29.8562 61.8C30.3282 61.8 30.5642 62.0547 30.5642 62.564ZM31.2855 61.54L30.9135 61.168L31.2855 60.796L31.6535 61.168L31.2855 61.54ZM30.9895 64V61.928L31.5615 61.788H31.5775V64H30.9895ZM34.0328 62.564V64H33.4448V62.508C33.4448 62.3773 33.4221 62.256 33.3768 62.144C33.3341 62.0373 33.2314 61.984 33.0688 61.984C32.9114 61.984 32.7568 62.06 32.6048 62.212V64H32.0168V61.928L32.5888 61.788H32.6048V62.136C32.8154 61.912 33.0568 61.8 33.3288 61.8C33.7981 61.8 34.0328 62.0547 34.0328 62.564ZM36.2182 61.996C36.1409 61.996 36.0809 62.0093 36.0382 62.036C36.1902 62.172 36.2662 62.3427 36.2662 62.548C36.2662 62.7667 36.1742 62.9467 35.9902 63.088C35.8089 63.2293 35.5822 63.3 35.3102 63.3C35.1475 63.3 35.0035 63.276 34.8782 63.228L34.8102 63.272C34.7489 63.312 34.7182 63.3627 34.7182 63.424C34.7182 63.4613 34.7382 63.4933 34.7782 63.52C34.8209 63.5467 34.8835 63.5613 34.9662 63.564L35.7142 63.608C36.2155 63.632 36.4662 63.8133 36.4662 64.152C36.4662 64.392 36.3435 64.5867 36.0982 64.736C35.8555 64.8853 35.5609 64.96 35.2142 64.96C34.9422 64.96 34.7115 64.912 34.5222 64.816C34.3329 64.72 34.2382 64.5853 34.2382 64.412C34.2382 64.34 34.2555 64.2693 34.2902 64.2L34.6102 64.108H34.6262C34.5915 64.2013 34.5742 64.2933 34.5742 64.384C34.5742 64.544 34.6302 64.6693 34.7422 64.76C34.8569 64.8507 35.0142 64.896 35.2142 64.896C35.4862 64.896 35.7062 64.8493 35.8742 64.756C36.0449 64.6653 36.1302 64.5453 36.1302 64.396C36.1302 64.2947 36.0862 64.2173 35.9982 64.164C35.9129 64.1133 35.7715 64.0827 35.5742 64.072L34.8862 64.032C34.7315 64.0213 34.6142 63.984 34.5342 63.92C34.4542 63.8533 34.4142 63.7667 34.4142 63.66C34.4142 63.5747 34.4395 63.5013 34.4902 63.44C34.5435 63.376 34.6302 63.308 34.7502 63.236L34.8102 63.2C34.5195 63.0667 34.3742 62.852 34.3742 62.556C34.3742 62.3347 34.4649 62.1533 34.6462 62.012C34.8302 61.8707 35.0595 61.8 35.3342 61.8C35.5929 61.8 35.8089 61.8627 35.9822 61.988C36.1075 61.7667 36.2915 61.656 36.5342 61.656L36.4862 62.064C36.3822 62.0187 36.2929 61.996 36.2182 61.996ZM35.7302 62.56C35.7302 62.344 35.6929 62.1733 35.6182 62.048C35.5462 61.9227 35.4462 61.86 35.3182 61.86C35.0489 61.86 34.9142 62.0893 34.9142 62.548C34.9142 62.764 34.9489 62.9333 35.0182 63.056C35.0902 63.1787 35.1929 63.24 35.3262 63.24C35.5955 63.24 35.7302 63.0133 35.7302 62.56ZM39.8235 63.192L40.1315 63.444V64.132H40.1075L39.5315 63.66C39.2808 63.9187 38.9435 64.048 38.5195 64.048C38.2261 64.048 37.9781 63.9787 37.7755 63.84C37.5755 63.6987 37.4755 63.5067 37.4755 63.264C37.4755 63.0827 37.5341 62.928 37.6515 62.8C37.7715 62.672 37.9355 62.5733 38.1435 62.504C37.8981 62.272 37.7755 62.036 37.7755 61.796C37.7755 61.5773 37.8555 61.3973 38.0155 61.256C38.1755 61.112 38.3688 61.04 38.5955 61.04C38.8061 61.04 38.9915 61.1 39.1515 61.22C39.3141 61.34 39.3955 61.488 39.3955 61.664C39.3955 61.8213 39.3368 61.948 39.2195 62.044C39.0968 62.14 38.9648 62.2093 38.8235 62.252L38.7795 62.212C38.9475 62.0947 39.0315 61.9187 39.0315 61.684C39.0315 61.5027 38.9901 61.36 38.9075 61.256C38.8248 61.1493 38.7141 61.096 38.5755 61.096C38.4501 61.096 38.3488 61.1387 38.2715 61.224C38.1968 61.3067 38.1595 61.4093 38.1595 61.532C38.1595 61.62 38.1821 61.7067 38.2275 61.792C38.2568 61.8427 38.2928 61.892 38.3355 61.94C38.3808 61.988 38.4208 62.028 38.4555 62.06C38.4928 62.092 38.5528 62.1427 38.6355 62.212L39.7715 63.148C39.8141 63.02 39.8355 62.88 39.8355 62.728C39.8355 62.536 39.7861 62.356 39.6875 62.188L39.8995 62.116H39.9155V62.652C39.9155 62.8413 39.8848 63.0213 39.8235 63.192ZM39.4755 63.612L38.4675 62.784C38.3875 62.7227 38.2955 62.644 38.1915 62.548C38.0608 62.6627 37.9955 62.8413 37.9955 63.084C37.9955 63.332 38.0661 63.5293 38.2075 63.676C38.3488 63.82 38.5288 63.892 38.7475 63.892C39.0301 63.892 39.2728 63.7987 39.4755 63.612ZM43.3998 63.896L42.8398 64.044L42.7318 63.708C42.5291 63.9347 42.2985 64.048 42.0398 64.048C41.7785 64.048 41.5598 63.9467 41.3838 63.744C41.2078 63.5387 41.1198 63.28 41.1198 62.968C41.1198 62.6347 41.2238 62.3573 41.4318 62.136C41.6398 61.912 41.8931 61.8 42.1918 61.8C42.3971 61.8 42.5745 61.8587 42.7238 61.976V60.928L43.2958 60.76H43.3118V63.62L43.3998 63.896ZM42.7238 63.612V62.276C42.6865 62.148 42.6265 62.048 42.5438 61.976C42.4638 61.9013 42.3718 61.864 42.2678 61.864C42.0998 61.864 41.9705 61.9573 41.8798 62.144C41.7891 62.328 41.7438 62.588 41.7438 62.924C41.7438 63.556 41.9118 63.872 42.2478 63.872C42.4158 63.872 42.5745 63.7853 42.7238 63.612ZM45.7113 62.784H44.2553V62.8C44.2553 63.128 44.3193 63.3787 44.4473 63.552C44.5753 63.7253 44.7499 63.812 44.9713 63.812C45.2433 63.812 45.4726 63.6947 45.6593 63.46L45.7073 63.488C45.4539 63.8613 45.1179 64.048 44.6993 64.048C44.3899 64.048 44.1366 63.9493 43.9393 63.752C43.7419 63.5547 43.6433 63.2933 43.6433 62.968C43.6433 62.6187 43.7499 62.3373 43.9633 62.124C44.1793 61.908 44.4566 61.8 44.7953 61.8C45.1073 61.8 45.3406 61.892 45.4953 62.076C45.6526 62.26 45.7246 62.496 45.7113 62.784ZM44.2553 62.72H45.1873C45.1926 62.6187 45.1953 62.564 45.1953 62.556C45.1953 62.348 45.1553 62.18 45.0753 62.052C44.9953 61.924 44.8913 61.86 44.7633 61.86C44.6166 61.86 44.4979 61.9413 44.4073 62.104C44.3193 62.2587 44.2686 62.464 44.2553 62.72ZM45.9245 62.956C45.9192 62.6173 46.0272 62.3387 46.2485 62.12C46.4698 61.9013 46.7365 61.7947 47.0485 61.8C47.3898 61.8 47.6645 61.9173 47.8725 62.152L47.6685 62.332C47.5698 62.1667 47.4778 62.0467 47.3925 61.972C47.3072 61.8973 47.2098 61.86 47.1005 61.86C46.9325 61.86 46.7992 61.9453 46.7005 62.116C46.6045 62.284 46.5565 62.516 46.5565 62.812C46.5565 63.1347 46.6138 63.3827 46.7285 63.556C46.8458 63.7267 47.0072 63.812 47.2125 63.812C47.4605 63.812 47.6725 63.692 47.8485 63.452L47.8965 63.48C47.6485 63.8587 47.3338 64.048 46.9525 64.048C46.6592 64.048 46.4138 63.948 46.2165 63.748C46.0218 63.5453 45.9245 63.2813 45.9245 62.956ZM48.0222 62.936C48.0222 62.6 48.1315 62.3267 48.3502 62.116C48.5715 61.9053 48.8502 61.8 49.1862 61.8C49.5168 61.8 49.7875 61.9027 49.9982 62.108C50.2115 62.3107 50.3182 62.5787 50.3182 62.912C50.3182 63.2453 50.2075 63.5187 49.9862 63.732C49.7648 63.9427 49.4875 64.048 49.1542 64.048C48.8235 64.048 48.5515 63.9467 48.3382 63.744C48.1275 63.5387 48.0222 63.2693 48.0222 62.936ZM49.6942 62.94C49.6942 62.6067 49.6462 62.3427 49.5502 62.148C49.4568 61.9533 49.3275 61.856 49.1622 61.856C48.9942 61.856 48.8662 61.9493 48.7782 62.136C48.6902 62.32 48.6462 62.58 48.6462 62.916C48.6462 63.2467 48.6928 63.5093 48.7862 63.704C48.8795 63.896 49.0088 63.992 49.1742 63.992C49.3422 63.992 49.4702 63.9 49.5582 63.716C49.6488 63.5293 49.6942 63.2707 49.6942 62.94ZM52.0297 61.824L51.8737 62.26C51.807 62.2253 51.7364 62.208 51.6617 62.208C51.563 62.208 51.475 62.2413 51.3977 62.308C51.3204 62.372 51.2657 62.46 51.2337 62.572V64H50.6457V61.928L51.2017 61.788H51.2177V62.448C51.271 62.248 51.3537 62.0907 51.4657 61.976C51.5804 61.8587 51.7097 61.8 51.8537 61.8C51.915 61.8 51.9737 61.808 52.0297 61.824ZM54.0783 63.884V63.908C53.945 63.996 53.7957 64.04 53.6303 64.04C53.393 64.04 53.2557 63.9387 53.2183 63.736C53.021 63.9387 52.7903 64.04 52.5263 64.04C52.3583 64.04 52.2223 63.9933 52.1183 63.9C52.0143 63.804 51.9623 63.68 51.9623 63.528C51.9623 63.3467 52.0397 63.1973 52.1943 63.08C52.3517 62.96 52.5677 62.8853 52.8423 62.856C52.9863 62.8453 53.1103 62.8347 53.2143 62.824V62.604C53.2143 62.4013 53.1823 62.244 53.1183 62.132C53.0597 62.0173 52.9317 61.96 52.7343 61.96C52.529 61.96 52.3317 62.0347 52.1423 62.184L52.1063 62.14C52.2343 62.0227 52.3623 61.9373 52.4903 61.884C52.621 61.828 52.777 61.8 52.9583 61.8C53.5237 61.8 53.8063 62.0547 53.8063 62.564V63.588C53.8063 63.7107 53.817 63.792 53.8383 63.832C53.8597 63.872 53.913 63.892 53.9983 63.892C54.009 63.892 54.0357 63.8893 54.0783 63.884ZM53.2143 63.66V62.884C52.761 62.9373 52.5343 63.1267 52.5343 63.452C52.5343 63.5773 52.5623 63.6747 52.6183 63.744C52.677 63.8133 52.753 63.848 52.8463 63.848C52.9743 63.848 53.097 63.7853 53.2143 63.66ZM55.5358 63.768L55.5678 63.816C55.3465 63.9707 55.1305 64.048 54.9198 64.048C54.6878 64.048 54.5345 63.9907 54.4598 63.876C54.3825 63.7587 54.3438 63.6267 54.3438 63.48V61.936H54.0798V61.868L54.3358 61.848L54.9158 61.108H54.9318V61.848H55.5598L55.5078 61.936H54.9318V63.5C54.9318 63.5933 54.9478 63.6787 54.9798 63.756C55.0145 63.8307 55.0918 63.868 55.2118 63.868C55.3131 63.868 55.4211 63.8347 55.5358 63.768ZM56.0355 61.54L55.6635 61.168L56.0355 60.796L56.4035 61.168L56.0355 61.54ZM55.7395 64V61.928L56.3115 61.788H56.3275V64H55.7395ZM56.6628 62.936C56.6628 62.6 56.7721 62.3267 56.9908 62.116C57.2121 61.9053 57.4908 61.8 57.8268 61.8C58.1574 61.8 58.4281 61.9027 58.6388 62.108C58.8521 62.3107 58.9588 62.5787 58.9588 62.912C58.9588 63.2453 58.8481 63.5187 58.6268 63.732C58.4054 63.9427 58.1281 64.048 57.7948 64.048C57.4641 64.048 57.1921 63.9467 56.9788 63.744C56.7681 63.5387 56.6628 63.2693 56.6628 62.936ZM58.3348 62.94C58.3348 62.6067 58.2868 62.3427 58.1908 62.148C58.0974 61.9533 57.9681 61.856 57.8028 61.856C57.6348 61.856 57.5068 61.9493 57.4188 62.136C57.3308 62.32 57.2868 62.58 57.2868 62.916C57.2868 63.2467 57.3334 63.5093 57.4268 63.704C57.5201 63.896 57.6494 63.992 57.8148 63.992C57.9828 63.992 58.1108 63.9 58.1988 63.716C58.2894 63.5293 58.3348 63.2707 58.3348 62.94ZM61.3023 62.564V64H60.7143V62.508C60.7143 62.3773 60.6916 62.256 60.6463 62.144C60.6036 62.0373 60.501 61.984 60.3383 61.984C60.181 61.984 60.0263 62.06 59.8743 62.212V64H59.2863V61.928L59.8583 61.788H59.8743V62.136C60.085 61.912 60.3263 61.8 60.5983 61.8C61.0676 61.8 61.3023 62.0547 61.3023 62.564Z" fill="#666666" />
  <path d="M62.4658 54.76C59.6538 54.76 57.4118 53.9747 55.7398 52.404C54.0931 50.8333 53.2445 48.5407 53.1938 45.526L56.1198 45.184C56.3225 47.2107 56.9178 48.7687 57.9058 49.858C58.9191 50.922 60.3885 51.454 62.3138 51.454C63.8085 51.454 65.0371 51.0613 65.9998 50.276C66.9625 49.4653 67.4438 48.3 67.4438 46.78C67.4438 46.096 67.3298 45.5133 67.1018 45.032C66.8991 44.5253 66.6078 44.0947 66.2278 43.74C65.8731 43.3853 65.4425 43.094 64.9358 42.866C64.4545 42.6127 63.9351 42.3847 63.3778 42.182C62.9725 42.03 62.5671 41.8907 62.1618 41.764C61.7565 41.6373 61.3385 41.5107 60.9078 41.384C60.0718 41.1307 59.2358 40.8393 58.3998 40.51C57.5638 40.1553 56.8038 39.6993 56.1198 39.142C55.4611 38.5593 54.9291 37.8373 54.5238 36.976C54.1185 36.1147 53.9158 35.038 53.9158 33.746C53.9158 32.606 54.0931 31.5673 54.4478 30.63C54.8278 29.6673 55.3598 28.844 56.0438 28.16C56.7278 27.476 57.5385 26.9567 58.4758 26.602C59.4131 26.222 60.4518 26.032 61.5918 26.032C64.0238 26.032 65.9745 26.7413 67.4438 28.16C68.9385 29.5787 69.7238 31.5927 69.7998 34.202L66.7218 34.544C66.5698 32.796 66.1011 31.4913 65.3158 30.63C64.5305 29.7687 63.3271 29.338 61.7058 29.338C60.3631 29.338 59.2485 29.6673 58.3618 30.326C57.4751 30.9593 57.0318 31.9853 57.0318 33.404C57.0318 34.0627 57.1458 34.62 57.3738 35.076C57.6271 35.5067 57.9438 35.8867 58.3238 36.216C58.7038 36.52 59.1345 36.7733 59.6158 36.976C60.1225 37.1787 60.6291 37.3687 61.1358 37.546C61.5158 37.6727 61.9085 37.7993 62.3138 37.926C62.7445 38.0527 63.1751 38.1793 63.6058 38.306C64.4671 38.5847 65.3158 38.914 66.1518 39.294C66.9878 39.6487 67.7351 40.13 68.3938 40.738C69.0525 41.346 69.5845 42.106 69.9898 43.018C70.3951 43.93 70.5978 45.07 70.5978 46.438C70.5978 47.6287 70.3951 48.7307 69.9898 49.744C69.6098 50.7573 69.0525 51.6313 68.3178 52.366C67.6085 53.1007 66.7598 53.6833 65.7718 54.114C64.7838 54.5447 63.6818 54.76 62.4658 54.76Z" fill="white" />
</svg>